# xmcd CD database file
#
# Track frame offsets:
#	150
#	13194
#	26763
#	38102
#	49121
#	68106
#	83798
#	94244
#	105703
#	116622
#	128396
#	142712
#	161227
#
# Disc length: 2306 seconds
#
# Revision: 0
# Processed by: cddbd v1.5.2PL0 Copyright (c) Steve Scherf et al.
# Submitted via: CDex 1.75
#
DISCID=a509000d
DTITLE=Christopher Phillips - Piano Chill: Songs of The Beatles
DYEAR=2019
DGENRE=New Age
TTITLE0=All My Loving
TTITLE1=Here Comes the Sun
TTITLE2=Yesterday
TTITLE3=Here, There and Everywhere
TTITLE4=Hey Jude
TTITLE5=If I Fell
TTITLE6=Blackbird
TTITLE7=And I Love Her
TTITLE8=Eleanor Rigby
TTITLE9=In My Life
TTITLE10=Norwegian Wood
TTITLE11=Let It Be
TTITLE12=I Will
EXTD=YEAR: 2019
EXTT0=
EXTT1=
EXTT2=
EXTT3=
EXTT4=
EXTT5=
EXTT6=
EXTT7=
EXTT8=
EXTT9=
EXTT10=
EXTT11=
EXTT12=
PLAYORDER=
